<svg width="1920" height="212" viewBox="0 0 1920 212" fill="none" xmlns="http://www.w3.org/2000/svg">
<rect width="1920" height="212" fill="#BDB2A7"/>
<path d="M822.768 63.968C827.035 63.968 830.277 64.48 832.496 65.504C834.715 66.4427 836.677 67.5093 838.384 68.704C839.408 69.3013 840.219 69.7707 840.816 70.112C841.499 70.368 842.139 70.496 842.736 70.496C843.589 70.496 844.187 70.0267 844.528 69.088C844.955 68.1493 845.296 66.7413 845.552 64.864H848.496C848.411 66.3147 848.283 68.064 848.112 70.112C848.027 72.0747 847.941 74.72 847.856 78.048C847.856 81.2907 847.856 85.6 847.856 90.976H844.912C844.656 86.88 843.76 82.9547 842.224 79.2C840.688 75.4453 838.427 72.3733 835.44 69.984C832.539 67.5947 828.699 66.4 823.92 66.4C819.397 66.4 815.643 67.7653 812.656 70.496C809.755 73.2267 808.304 76.8107 808.304 81.248C808.304 85.088 809.285 88.3307 811.248 90.976C813.211 93.536 815.813 95.8827 819.056 98.016C822.384 100.064 825.968 102.283 829.808 104.672C834.245 107.403 838.171 110.133 841.584 112.864C845.083 115.509 847.813 118.453 849.776 121.696C851.824 124.939 852.848 128.864 852.848 133.472C852.848 138.933 851.611 143.456 849.136 147.04C846.661 150.624 843.376 153.312 839.28 155.104C835.184 156.896 830.661 157.792 825.712 157.792C821.189 157.792 817.605 157.28 814.96 156.256C812.315 155.232 810.053 154.165 808.176 153.056C806.299 151.861 804.848 151.264 803.824 151.264C802.971 151.264 802.331 151.733 801.904 152.672C801.563 153.611 801.264 155.019 801.008 156.896H798.064C798.235 155.104 798.32 153.013 798.32 150.624C798.405 148.149 798.448 144.949 798.448 141.024C798.533 137.099 798.576 132.149 798.576 126.176H801.52C801.861 131.296 802.8 136.075 804.336 140.512C805.957 144.949 808.389 148.533 811.632 151.264C814.96 153.909 819.355 155.232 824.816 155.232C827.632 155.232 830.277 154.677 832.752 153.568C835.312 152.373 837.403 150.539 839.024 148.064C840.645 145.504 841.456 142.219 841.456 138.208C841.456 134.709 840.603 131.68 838.896 129.12C837.275 126.475 834.971 124.043 831.984 121.824C828.997 119.52 825.499 117.173 821.488 114.784C817.477 112.309 813.723 109.792 810.224 107.232C806.725 104.672 803.909 101.728 801.776 98.4C799.728 94.9867 798.704 90.8907 798.704 86.112C798.704 81.0773 799.813 76.9387 802.032 73.696C804.336 70.368 807.323 67.936 810.992 66.4C814.661 64.7787 818.587 63.968 822.768 63.968ZM918.005 156V153.44C920.906 153.269 923.082 152.928 924.533 152.416C926.069 151.904 927.093 150.88 927.605 149.344C928.117 147.808 928.373 145.504 928.373 142.432V78.944C928.373 75.7867 928.117 73.4827 927.605 72.032C927.093 70.496 926.069 69.472 924.533 68.96C923.082 68.3627 920.906 68.0213 918.005 67.936V65.376C919.968 65.4613 922.442 65.5467 925.429 65.632C928.416 65.7173 931.36 65.76 934.261 65.76C937.589 65.76 940.704 65.7173 943.605 65.632C946.506 65.5467 948.853 65.4613 950.645 65.376V67.936C947.744 68.0213 945.525 68.3627 943.989 68.96C942.538 69.472 941.557 70.496 941.045 72.032C940.533 73.4827 940.277 75.7867 940.277 78.944V142.432C940.277 145.504 940.533 147.808 941.045 149.344C941.557 150.88 942.538 151.904 943.989 152.416C945.525 152.928 947.744 153.269 950.645 153.44V156C948.853 155.829 946.506 155.744 943.605 155.744C940.704 155.659 937.589 155.616 934.261 155.616C931.36 155.616 928.416 155.659 925.429 155.744C922.442 155.744 919.968 155.829 918.005 156ZM864.501 156V153.44C867.402 153.269 869.578 152.928 871.029 152.416C872.565 151.904 873.589 150.88 874.101 149.344C874.613 147.808 874.869 145.504 874.869 142.432V78.944C874.869 75.7867 874.613 73.4827 874.101 72.032C873.589 70.496 872.565 69.472 871.029 68.96C869.578 68.3627 867.402 68.0213 864.501 67.936V65.376C866.293 65.4613 868.64 65.5467 871.541 65.632C874.442 65.7173 877.557 65.76 880.885 65.76C883.872 65.76 886.816 65.7173 889.717 65.632C892.704 65.5467 895.178 65.4613 897.141 65.376V67.936C894.24 68.0213 892.021 68.3627 890.485 68.96C889.034 69.472 888.053 70.496 887.541 72.032C887.029 73.4827 886.773 75.7867 886.773 78.944V142.432C886.773 145.504 887.029 147.808 887.541 149.344C888.053 150.88 889.034 151.904 890.485 152.416C892.021 152.928 894.24 153.269 897.141 153.44V156C895.178 155.829 892.704 155.744 889.717 155.744C886.816 155.659 883.872 155.616 880.885 155.616C877.557 155.616 874.442 155.659 871.541 155.744C868.64 155.744 866.293 155.829 864.501 156ZM882.293 111.712V109.152H932.853V111.712H882.293ZM1002.49 63.584C1010.59 63.584 1017.68 65.4187 1023.74 69.088C1029.88 72.7573 1034.62 78.048 1037.94 84.96C1041.36 91.7867 1043.06 100.107 1043.06 109.92C1043.06 119.477 1041.31 127.84 1037.82 135.008C1034.4 142.176 1029.62 147.765 1023.48 151.776C1017.34 155.787 1010.3 157.792 1002.36 157.792C994.253 157.792 987.128 155.957 980.984 152.288C974.925 148.619 970.189 143.328 966.776 136.416C963.448 129.504 961.784 121.184 961.784 111.456C961.784 101.899 963.533 93.536 967.032 86.368C970.531 79.2 975.309 73.6107 981.368 69.6C987.512 65.5893 994.552 63.584 1002.49 63.584ZM1001.98 65.888C996.429 65.888 991.608 67.808 987.512 71.648C983.416 75.488 980.216 80.7787 977.912 87.52C975.693 94.2613 974.584 102.069 974.584 110.944C974.584 119.989 975.821 127.883 978.296 134.624C980.856 141.28 984.269 146.443 988.536 150.112C992.888 153.696 997.667 155.488 1002.87 155.488C1008.42 155.488 1013.24 153.568 1017.34 149.728C1021.43 145.888 1024.59 140.597 1026.81 133.856C1029.11 127.029 1030.26 119.221 1030.26 110.432C1030.26 101.301 1028.98 93.408 1026.42 86.752C1023.95 80.096 1020.58 74.976 1016.31 71.392C1012.05 67.7227 1007.27 65.888 1001.98 65.888ZM1054.25 65.376C1056.04 65.4613 1058.39 65.5467 1061.29 65.632C1064.19 65.7173 1067.05 65.76 1069.87 65.76C1073.88 65.76 1077.72 65.7173 1081.39 65.632C1085.06 65.5467 1087.66 65.504 1089.2 65.504C1099.52 65.504 1107.24 67.8507 1112.36 72.544C1117.48 77.2373 1120.04 83.296 1120.04 90.72C1120.04 93.792 1119.53 97.0347 1118.51 100.448C1117.48 103.776 1115.69 106.891 1113.13 109.792C1110.66 112.608 1107.24 114.912 1102.89 116.704C1098.54 118.496 1093.04 119.392 1086.38 119.392H1074.09V116.832H1085.1C1091.16 116.832 1095.77 115.68 1098.92 113.376C1102.17 111.072 1104.34 108.043 1105.45 104.288C1106.65 100.533 1107.24 96.48 1107.24 92.128C1107.24 84.0213 1105.62 77.9627 1102.38 73.952C1099.22 69.9413 1093.76 67.936 1086 67.936C1082.07 67.936 1079.51 68.6613 1078.32 70.112C1077.12 71.5627 1076.52 74.5067 1076.52 78.944V142.432C1076.52 145.504 1076.82 147.808 1077.42 149.344C1078.1 150.88 1079.38 151.904 1081.26 152.416C1083.14 152.928 1085.87 153.269 1089.45 153.44V156C1087.23 155.829 1084.42 155.744 1081 155.744C1077.59 155.659 1074.13 155.616 1070.64 155.616C1067.31 155.616 1064.19 155.659 1061.29 155.744C1058.39 155.744 1056.04 155.829 1054.25 156V153.44C1057.15 153.269 1059.33 152.928 1060.78 152.416C1062.32 151.904 1063.34 150.88 1063.85 149.344C1064.36 147.808 1064.62 145.504 1064.62 142.432V78.944C1064.62 75.7867 1064.36 73.4827 1063.85 72.032C1063.34 70.496 1062.32 69.472 1060.78 68.96C1059.33 68.3627 1057.15 68.0213 1054.25 67.936V65.376Z" fill="black"/>
</svg>
