<svg width="1920" height="212" viewBox="0 0 1920 212" fill="none" xmlns="http://www.w3.org/2000/svg">
<rect width="1920" height="212" fill="#BDB2A7"/>
<path d="M837.488 63.584C843.12 63.584 847.728 64.4373 851.312 66.144C854.981 67.7653 858.224 69.6853 861.04 71.904C862.747 73.184 864.027 73.3547 864.88 72.416C865.819 71.392 866.459 69.0453 866.8 65.376H869.744C869.573 68.5333 869.445 72.3733 869.36 76.896C869.275 81.4187 869.232 87.392 869.232 94.816H866.288C865.691 91.1467 865.136 88.2453 864.624 86.112C864.112 83.8933 863.472 82.016 862.704 80.48C862.021 78.944 861.083 77.408 859.888 75.872C857.243 72.3733 853.915 69.856 849.904 68.32C845.893 66.6987 841.669 65.888 837.232 65.888C833.051 65.888 829.253 66.9547 825.84 69.088C822.512 71.136 819.611 74.1227 817.136 78.048C814.747 81.9733 812.869 86.7093 811.504 92.256C810.224 97.8027 809.584 104.032 809.584 110.944C809.584 118.112 810.309 124.469 811.76 130.016C813.211 135.477 815.216 140.085 817.776 143.84C820.421 147.595 823.493 150.453 826.992 152.416C830.576 154.293 834.416 155.232 838.512 155.232C842.352 155.232 846.363 154.464 850.544 152.928C854.725 151.392 858.011 148.917 860.4 145.504C862.277 143.029 863.557 140.341 864.24 137.44C865.008 134.539 865.691 130.485 866.288 125.28H869.232C869.232 133.045 869.275 139.317 869.36 144.096C869.445 148.789 869.573 152.757 869.744 156H866.8C866.459 152.331 865.861 150.027 865.008 149.088C864.24 148.149 862.917 148.277 861.04 149.472C857.883 151.691 854.512 153.653 850.928 155.36C847.429 156.981 842.907 157.792 837.36 157.792C829.253 157.792 822.128 155.957 815.984 152.288C809.925 148.619 805.189 143.328 801.776 136.416C798.448 129.504 796.784 121.184 796.784 111.456C796.784 101.899 798.533 93.536 802.032 86.368C805.531 79.2 810.309 73.6107 816.368 69.6C822.512 65.5893 829.552 63.584 837.488 63.584ZM919.469 64.736L950.701 145.248C951.981 148.491 953.432 150.667 955.053 151.776C956.674 152.8 958.168 153.355 959.533 153.44V156C957.826 155.829 955.736 155.744 953.261 155.744C950.786 155.659 948.312 155.616 945.837 155.616C942.509 155.616 939.394 155.659 936.493 155.744C933.592 155.744 931.245 155.829 929.453 156V153.44C933.805 153.269 936.578 152.544 937.773 151.264C938.968 149.899 938.712 147.04 937.005 142.688L913.197 79.072L915.245 77.408L892.973 135.264C891.608 138.677 890.797 141.579 890.541 143.968C890.285 146.272 890.498 148.107 891.181 149.472C891.949 150.837 893.186 151.819 894.893 152.416C896.685 153.013 898.904 153.355 901.549 153.44V156C899.16 155.829 896.642 155.744 893.997 155.744C891.437 155.659 889.048 155.616 886.829 155.616C884.696 155.616 882.861 155.659 881.325 155.744C879.874 155.744 878.509 155.829 877.229 156V153.44C878.936 153.013 880.685 152.032 882.477 150.496C884.269 148.875 885.89 146.144 887.341 142.304L917.421 64.736C917.762 64.736 918.104 64.736 918.445 64.736C918.786 64.736 919.128 64.736 919.469 64.736ZM935.085 119.136V121.696H896.941L898.221 119.136H935.085ZM1025.5 65.376C1025.16 68.6187 1024.9 71.776 1024.73 74.848C1024.64 77.8347 1024.6 80.1387 1024.6 81.76C1024.6 83.808 1024.64 85.728 1024.73 87.52C1024.82 89.312 1024.9 90.8907 1024.99 92.256H1022.04C1021.44 86.2827 1020.63 81.5893 1019.61 78.176C1018.59 74.6773 1016.79 72.16 1014.23 70.624C1011.67 69.088 1007.71 68.32 1002.33 68.32H994.266C991.365 68.32 989.146 68.576 987.61 69.088C986.159 69.5147 985.178 70.496 984.666 72.032C984.154 73.4827 983.898 75.7867 983.898 78.944V142.432C983.898 145.504 984.197 147.808 984.794 149.344C985.477 150.88 986.757 151.904 988.634 152.416C990.511 152.928 993.242 153.269 996.826 153.44V156C994.607 155.829 991.791 155.744 988.378 155.744C984.965 155.659 981.509 155.616 978.01 155.616C974.682 155.616 971.567 155.659 968.666 155.744C965.765 155.744 963.418 155.829 961.626 156V153.44C964.527 153.269 966.703 152.928 968.154 152.416C969.69 151.904 970.714 150.88 971.226 149.344C971.738 147.808 971.994 145.504 971.994 142.432V78.944C971.994 75.7867 971.738 73.4827 971.226 72.032C970.714 70.496 969.69 69.472 968.154 68.96C966.703 68.3627 964.527 68.0213 961.626 67.936V65.376C964.783 65.4613 968.111 65.5467 971.61 65.632C975.109 65.632 978.565 65.6747 981.978 65.76C985.391 65.76 988.549 65.76 991.45 65.76C994.437 65.76 996.869 65.76 998.746 65.76C1002.67 65.76 1007.11 65.76 1012.06 65.76C1017.09 65.6747 1021.57 65.5467 1025.5 65.376ZM1005.66 110.432C1005.66 110.432 1005.66 110.859 1005.66 111.712C1005.66 112.565 1005.66 112.992 1005.66 112.992H980.058C980.058 112.992 980.058 112.565 980.058 111.712C980.058 110.859 980.058 110.432 980.058 110.432H1005.66ZM1008.09 93.536C1007.75 98.4 1007.58 102.112 1007.58 104.672C1007.66 107.232 1007.71 109.579 1007.71 111.712C1007.71 113.845 1007.75 116.192 1007.83 118.752C1007.92 121.312 1008.13 125.024 1008.47 129.888H1005.53C1005.19 127.157 1004.76 124.512 1004.25 121.952C1003.82 119.307 1002.8 117.173 1001.18 115.552C999.642 113.845 996.997 112.992 993.242 112.992V110.432C996.058 110.432 998.191 109.877 999.642 108.768C1001.18 107.573 1002.29 106.08 1002.97 104.288C1003.65 102.496 1004.12 100.661 1004.38 98.784C1004.63 96.8213 1004.89 95.072 1005.15 93.536H1008.09ZM1098.37 65.376C1098.03 68.3627 1097.78 71.264 1097.61 74.08C1097.52 76.896 1097.48 79.0293 1097.48 80.48C1097.48 82.016 1097.52 83.5093 1097.61 84.96C1097.69 86.3253 1097.78 87.4773 1097.86 88.416H1094.92C1094.41 83.3813 1093.68 79.4133 1092.74 76.512C1091.8 73.5253 1090.18 71.4347 1087.88 70.24C1085.66 68.96 1082.29 68.32 1077.77 68.32H1067.14C1064.24 68.32 1062.02 68.576 1060.49 69.088C1059.03 69.5147 1058.05 70.496 1057.54 72.032C1057.03 73.4827 1056.77 75.7867 1056.77 78.944V142.432C1056.77 145.504 1057.03 147.808 1057.54 149.344C1058.05 150.88 1059.03 151.904 1060.49 152.416C1062.02 152.843 1064.24 153.056 1067.14 153.056H1076.49C1081.86 153.056 1085.91 152.331 1088.65 150.88C1091.46 149.429 1093.47 147.083 1094.66 143.84C1095.94 140.512 1096.88 136.032 1097.48 130.4H1100.42C1100.17 132.704 1100.04 135.776 1100.04 139.616C1100.04 141.237 1100.08 143.584 1100.17 146.656C1100.34 149.643 1100.59 152.757 1100.93 156C1096.58 155.829 1091.67 155.744 1086.21 155.744C1080.75 155.659 1075.89 155.616 1071.62 155.616C1069.74 155.616 1067.31 155.616 1064.33 155.616C1061.42 155.616 1058.27 155.659 1054.85 155.744C1051.44 155.744 1047.98 155.787 1044.49 155.872C1040.99 155.872 1037.66 155.915 1034.5 156V153.44C1037.4 153.269 1039.58 152.928 1041.03 152.416C1042.57 151.904 1043.59 150.88 1044.1 149.344C1044.61 147.808 1044.87 145.504 1044.87 142.432V78.944C1044.87 75.7867 1044.61 73.4827 1044.1 72.032C1043.59 70.496 1042.57 69.472 1041.03 68.96C1039.58 68.3627 1037.4 68.0213 1034.5 67.936V65.376C1037.66 65.4613 1040.99 65.5467 1044.49 65.632C1047.98 65.632 1051.44 65.6747 1054.85 65.76C1058.27 65.76 1061.42 65.76 1064.33 65.76C1067.31 65.76 1069.74 65.76 1071.62 65.76C1075.55 65.76 1079.98 65.76 1084.93 65.76C1089.97 65.6747 1094.45 65.5467 1098.37 65.376ZM1076.36 109.152C1076.36 109.152 1076.36 109.579 1076.36 110.432C1076.36 111.285 1076.36 111.712 1076.36 111.712H1052.93C1052.93 111.712 1052.93 111.285 1052.93 110.432C1052.93 109.579 1052.93 109.152 1052.93 109.152H1076.36ZM1080.07 92.256C1079.73 97.12 1079.56 100.832 1079.56 103.392C1079.64 105.952 1079.69 108.299 1079.69 110.432C1079.69 112.565 1079.73 114.912 1079.81 117.472C1079.9 120.032 1080.11 123.744 1080.45 128.608H1077.51C1077.17 125.877 1076.74 123.232 1076.23 120.672C1075.8 118.027 1074.78 115.893 1073.16 114.272C1071.62 112.565 1068.98 111.712 1065.22 111.712V109.152C1068.04 109.152 1070.17 108.597 1071.62 107.488C1073.16 106.293 1074.27 104.8 1074.95 103.008C1075.63 101.216 1076.1 99.3813 1076.36 97.504C1076.61 95.5413 1076.87 93.792 1077.13 92.256H1080.07ZM1081.99 37.472C1083.7 36.3627 1085.23 35.9787 1086.6 36.32C1088.05 36.576 1089.11 37.2587 1089.8 38.368C1090.48 39.4773 1090.65 40.7147 1090.31 42.08C1089.97 43.36 1088.9 44.5973 1087.11 45.792C1085.32 46.9013 1083.23 47.9253 1080.84 48.864C1078.53 49.7173 1075.8 50.784 1072.65 52.064C1069.57 53.2587 1065.82 54.9653 1061.38 57.184L1060.49 55.52C1064.41 52.5333 1067.61 49.9307 1070.09 47.712C1072.65 45.408 1074.82 43.4027 1076.61 41.696C1078.41 39.9893 1080.2 38.5813 1081.99 37.472Z" fill="black"/>
</svg>
