<svg width="249" height="48" viewBox="0 0 249 48" fill="none" xmlns="http://www.w3.org/2000/svg">
<path d="M16.624 3.344C18.736 3.344 20.464 3.664 21.808 4.304C23.184 4.912 24.4 5.632 25.456 6.464C26.096 6.944 26.576 7.008 26.896 6.656C27.248 6.272 27.488 5.392 27.616 4.016H28.72C28.656 5.232 28.608 6.72 28.576 8.48C28.544 10.24 28.528 12.56 28.528 15.44H27.424C27.232 14 27.024 12.8 26.8 11.84C26.576 10.848 26.256 10 25.84 9.296C25.456 8.592 24.912 7.92 24.208 7.28C23.344 6.32 22.304 5.616 21.088 5.168C19.904 4.688 18.656 4.448 17.344 4.448C15.68 4.448 14.224 4.896 12.976 5.792C11.76 6.656 10.736 7.856 9.904 9.392C9.104 10.896 8.496 12.656 8.08 14.672C7.696 16.688 7.504 18.832 7.504 21.104C7.504 23.44 7.712 25.616 8.128 27.632C8.576 29.616 9.216 31.36 10.048 32.864C10.912 34.336 11.968 35.488 13.216 36.32C14.496 37.152 15.968 37.568 17.632 37.568C18.816 37.568 20.032 37.344 21.28 36.896C22.528 36.448 23.552 35.76 24.352 34.832C25.408 33.872 26.128 32.736 26.512 31.424C26.896 30.08 27.2 28.304 27.424 26.096H28.528C28.528 29.104 28.544 31.536 28.576 33.392C28.608 35.216 28.656 36.752 28.72 38H27.616C27.488 36.624 27.264 35.76 26.944 35.408C26.656 35.056 26.16 35.104 25.456 35.552C24.272 36.384 23.008 37.12 21.664 37.76C20.352 38.368 18.656 38.672 16.576 38.672C13.312 38.672 10.448 37.984 7.984 36.608C5.52 35.232 3.6 33.248 2.224 30.656C0.88 28.064 0.208 24.944 0.208 21.296C0.208 17.712 0.912 14.576 2.32 11.888C3.728 9.2 5.664 7.104 8.128 5.6C10.592 4.096 13.424 3.344 16.624 3.344ZM45.0494 12.512C47.2574 12.512 49.2094 12.96 50.9054 13.856C52.6334 14.72 53.9934 16.112 54.9854 18.032C56.0094 19.952 56.5214 22.48 56.5214 25.616C56.5214 28.752 56.0094 31.28 54.9854 33.2C53.9934 35.12 52.6334 36.512 50.9054 37.376C49.2094 38.24 47.2574 38.672 45.0494 38.672C42.8414 38.672 40.8734 38.24 39.1454 37.376C37.4174 36.512 36.0574 35.12 35.0654 33.2C34.0734 31.28 33.5774 28.752 33.5774 25.616C33.5774 22.48 34.0734 19.952 35.0654 18.032C36.0574 16.112 37.4174 14.72 39.1454 13.856C40.8734 12.96 42.8414 12.512 45.0494 12.512ZM45.0494 13.472C43.5454 13.472 42.3134 14.432 41.3534 16.352C40.4254 18.24 39.9614 21.328 39.9614 25.616C39.9614 29.904 40.4254 32.992 41.3534 34.88C42.3134 36.768 43.5454 37.712 45.0494 37.712C46.5214 37.712 47.7374 36.768 48.6974 34.88C49.6574 32.992 50.1374 29.904 50.1374 25.616C50.1374 21.328 49.6574 18.24 48.6974 16.352C47.7374 14.432 46.5214 13.472 45.0494 13.472ZM73.5419 2.384C75.2699 2.384 76.8219 2.784 78.1979 3.584C79.5739 4.384 80.4859 5.552 80.9339 7.088L80.1179 7.52C79.7659 6.336 79.0619 5.36 78.0059 4.592C76.9819 3.792 75.6859 3.392 74.1179 3.392C72.4219 3.392 71.1739 3.92 70.3739 4.976C69.5739 6.032 69.1739 7.744 69.1739 10.112V13.232H75.8459V14.192H69.1739V33.536C69.1739 34.88 69.4139 35.792 69.8939 36.272C70.4059 36.752 71.2539 36.992 72.4379 36.992V38C71.8299 37.968 70.9499 37.936 69.7979 37.904C68.6459 37.84 67.4779 37.808 66.2939 37.808C65.0459 37.808 63.7819 37.84 62.5019 37.904C61.2219 37.936 60.2779 37.968 59.6699 38V36.992C60.9179 36.992 61.7979 36.752 62.3099 36.272C62.8539 35.792 63.1259 34.88 63.1259 33.536V14.192H59.4779V13.232H63.1259C63.1259 11.504 63.3499 9.968 63.7979 8.624C64.2779 7.248 64.9819 6.112 65.9099 5.216C66.7419 4.352 67.8139 3.664 69.1259 3.152C70.4699 2.64 71.9419 2.384 73.5419 2.384ZM87.7499 0.463997C88.8059 0.463997 89.7179 0.607997 90.4859 0.895997C91.2859 1.152 91.9899 1.504 92.5979 1.952C93.0459 2.336 93.4139 2.816 93.7019 3.392C94.0219 3.968 94.1819 4.608 94.1819 5.312C94.1819 6.176 93.8939 6.912 93.3179 7.52C92.7419 8.128 91.9899 8.432 91.0619 8.432C90.1019 8.432 89.3019 8.16 88.6619 7.616C88.0539 7.04 87.7499 6.256 87.7499 5.264C87.7499 4.496 87.9579 3.84 88.3739 3.296C88.8219 2.72 89.4619 2.32 90.2939 2.096C90.1979 1.872 89.9899 1.68 89.6699 1.52C89.3499 1.36 88.9179 1.28 88.3739 1.28C87.7019 1.28 87.1259 1.408 86.6459 1.664C86.1979 1.92 85.8459 2.272 85.5899 2.72C85.2379 3.264 84.9979 4.064 84.8699 5.12C84.7419 6.176 84.6779 7.776 84.6779 9.92V13.232H89.8139V14.192H84.6779V33.056C84.6779 34.624 85.0939 35.68 85.9259 36.224C86.7899 36.736 87.9419 36.992 89.3819 36.992V38C88.5819 37.968 87.4619 37.936 86.0219 37.904C84.5819 37.84 83.0459 37.808 81.4139 37.808C80.2619 37.808 79.1099 37.84 77.9579 37.904C76.8379 37.936 75.9739 37.968 75.3659 38V36.992C76.5499 36.992 77.3819 36.752 77.8619 36.272C78.3739 35.792 78.6299 34.88 78.6299 33.536V14.192H75.1739V13.232H78.6299C78.6299 11.344 78.7259 9.776 78.9179 8.528C79.1099 7.248 79.4139 6.16 79.8299 5.264C80.2459 4.368 80.7899 3.568 81.4619 2.864C82.1659 2.16 83.0619 1.584 84.1499 1.136C85.2699 0.687998 86.4699 0.463997 87.7499 0.463997ZM103.219 12.512C106.035 12.512 108.243 13.36 109.843 15.056C111.443 16.752 112.243 19.456 112.243 23.168H96.067L96.019 22.256H106.675C106.739 20.688 106.643 19.248 106.387 17.936C106.131 16.592 105.715 15.52 105.139 14.72C104.595 13.92 103.875 13.52 102.979 13.52C101.763 13.52 100.707 14.24 99.811 15.68C98.915 17.088 98.355 19.408 98.131 22.64L98.323 22.928C98.259 23.344 98.211 23.792 98.179 24.272C98.179 24.752 98.179 25.232 98.179 25.712C98.179 27.92 98.499 29.744 99.139 31.184C99.779 32.624 100.611 33.68 101.635 34.352C102.659 35.024 103.715 35.36 104.803 35.36C105.539 35.36 106.291 35.248 107.059 35.024C107.827 34.8 108.579 34.384 109.315 33.776C110.051 33.168 110.723 32.304 111.331 31.184L112.243 31.568C111.891 32.688 111.299 33.808 110.467 34.928C109.667 36.016 108.627 36.912 107.347 37.616C106.067 38.32 104.563 38.672 102.835 38.672C100.659 38.672 98.739 38.192 97.075 37.232C95.411 36.272 94.115 34.848 93.187 32.96C92.259 31.04 91.795 28.704 91.795 25.952C91.795 23.04 92.275 20.592 93.235 18.608C94.227 16.624 95.587 15.12 97.315 14.096C99.043 13.04 101.011 12.512 103.219 12.512ZM127.453 12.512C130.269 12.512 132.477 13.36 134.077 15.056C135.677 16.752 136.477 19.456 136.477 23.168H120.301L120.253 22.256H130.909C130.973 20.688 130.877 19.248 130.621 17.936C130.365 16.592 129.949 15.52 129.373 14.72C128.829 13.92 128.109 13.52 127.213 13.52C125.997 13.52 124.941 14.24 124.045 15.68C123.149 17.088 122.589 19.408 122.365 22.64L122.557 22.928C122.493 23.344 122.445 23.792 122.413 24.272C122.413 24.752 122.413 25.232 122.413 25.712C122.413 27.92 122.733 29.744 123.373 31.184C124.013 32.624 124.845 33.68 125.869 34.352C126.893 35.024 127.949 35.36 129.037 35.36C129.773 35.36 130.525 35.248 131.293 35.024C132.061 34.8 132.813 34.384 133.549 33.776C134.285 33.168 134.957 32.304 135.565 31.184L136.477 31.568C136.125 32.688 135.533 33.808 134.701 34.928C133.901 36.016 132.861 36.912 131.581 37.616C130.301 38.32 128.797 38.672 127.069 38.672C124.893 38.672 122.973 38.192 121.309 37.232C119.645 36.272 118.349 34.848 117.421 32.96C116.493 31.04 116.029 28.704 116.029 25.952C116.029 23.04 116.509 20.592 117.469 18.608C118.461 16.624 119.821 15.12 121.549 14.096C123.277 13.04 125.245 12.512 127.453 12.512ZM153.656 38.576C151.768 38.576 150.104 38.384 148.664 38C147.256 37.584 146.04 37.024 145.016 36.32C143.992 35.616 143.144 34.832 142.472 33.968C141.832 33.104 141.336 32.192 140.984 31.232L143.864 30.128C144.408 31.632 145.48 32.96 147.08 34.112C148.68 35.232 150.632 35.792 152.936 35.792C155.88 35.792 158.168 35.232 159.8 34.112C161.432 32.96 162.248 31.456 162.248 29.6C162.248 27.808 161.496 26.384 159.992 25.328C158.488 24.24 156.536 23.392 154.136 22.784L150.728 21.92C149.256 21.536 147.88 20.992 146.6 20.288C145.352 19.552 144.344 18.624 143.576 17.504C142.808 16.384 142.424 15.008 142.424 13.376C142.424 10.368 143.384 8.032 145.304 6.368C147.224 4.672 150.024 3.824 153.704 3.824C155.912 3.824 157.816 4.208 159.416 4.976C161.016 5.712 162.296 6.64 163.256 7.76C164.248 8.848 164.904 9.952 165.224 11.072L162.392 12.176C161.688 10.416 160.536 9.056 158.936 8.096C157.368 7.104 155.464 6.608 153.224 6.608C150.856 6.608 148.968 7.184 147.56 8.336C146.184 9.488 145.496 11.04 145.496 12.992C145.496 14.752 146.04 16.08 147.128 16.976C148.216 17.84 149.64 18.496 151.4 18.944L154.808 19.76C158.2 20.56 160.792 21.84 162.584 23.6C164.408 25.328 165.32 27.184 165.32 29.168C165.32 30.864 164.888 32.432 164.024 33.872C163.16 35.28 161.864 36.416 160.136 37.28C158.408 38.144 156.248 38.576 153.656 38.576ZM171.569 38V4.4H174.449V38H171.569ZM188.801 38V25.712H191.681V38H188.801ZM188.801 25.712C188.801 23.056 188.481 21.04 187.841 19.664C187.233 18.288 186.385 17.36 185.297 16.88C184.241 16.368 183.041 16.112 181.697 16.112C179.425 16.112 177.649 16.96 176.369 18.656C175.089 20.32 174.449 22.656 174.449 25.664H172.673C172.673 23.104 173.041 20.912 173.777 19.088C174.513 17.264 175.585 15.872 176.993 14.912C178.433 13.92 180.177 13.424 182.225 13.424C184.081 13.424 185.713 13.808 187.121 14.576C188.561 15.312 189.681 16.496 190.481 18.128C191.313 19.76 191.713 21.92 191.681 24.608V25.712H188.801ZM208.515 38.576C206.211 38.576 204.163 38.048 202.371 36.992C200.611 35.904 199.219 34.416 198.195 32.528C197.203 30.64 196.707 28.464 196.707 26C196.707 23.536 197.203 21.36 198.195 19.472C199.187 17.584 200.563 16.112 202.323 15.056C204.115 13.968 206.147 13.424 208.419 13.424C210.723 13.424 212.755 13.968 214.515 15.056C216.307 16.112 217.699 17.584 218.691 19.472C219.683 21.36 220.179 23.536 220.179 26C220.179 28.464 219.683 30.64 218.691 32.528C217.699 34.416 216.323 35.904 214.563 36.992C212.803 38.048 210.787 38.576 208.515 38.576ZM208.515 35.936C210.243 35.936 211.763 35.52 213.075 34.688C214.387 33.824 215.411 32.656 216.147 31.184C216.915 29.68 217.299 27.952 217.299 26C217.299 24.048 216.915 22.336 216.147 20.864C215.411 19.36 214.371 18.192 213.027 17.36C211.683 16.496 210.147 16.064 208.419 16.064C206.691 16.064 205.155 16.496 203.811 17.36C202.499 18.192 201.459 19.36 200.691 20.864C199.955 22.336 199.587 24.048 199.587 26C199.587 27.952 199.971 29.68 200.739 31.184C201.507 32.656 202.563 33.824 203.907 34.688C205.251 35.52 206.787 35.936 208.515 35.936ZM226.184 47.6V14H228.872L229.064 18.416V47.6H226.184ZM237.512 38.576C235.496 38.576 233.704 38.048 232.136 36.992C230.568 35.904 229.336 34.416 228.44 32.528C227.576 30.608 227.144 28.432 227.144 26C227.144 23.536 227.576 21.36 228.44 19.472C229.336 17.584 230.568 16.112 232.136 15.056C233.704 13.968 235.496 13.424 237.512 13.424C239.624 13.424 241.496 13.968 243.128 15.056C244.76 16.112 246.04 17.584 246.968 19.472C247.896 21.36 248.36 23.536 248.36 26C248.36 28.432 247.896 30.608 246.968 32.528C246.04 34.416 244.76 35.904 243.128 36.992C241.496 38.048 239.624 38.576 237.512 38.576ZM236.936 35.984C238.6 35.984 240.072 35.568 241.352 34.736C242.632 33.872 243.64 32.688 244.376 31.184C245.112 29.68 245.48 27.952 245.48 26C245.48 24.048 245.112 22.32 244.376 20.816C243.672 19.312 242.68 18.144 241.4 17.312C240.12 16.448 238.648 16.016 236.984 16.016C235.448 16.016 234.072 16.448 232.856 17.312C231.672 18.144 230.744 19.312 230.072 20.816C229.4 22.32 229.064 24.048 229.064 26C229.064 27.952 229.4 29.68 230.072 31.184C230.744 32.688 231.672 33.872 232.856 34.736C234.04 35.568 235.4 35.984 236.936 35.984Z" fill="black"/>
</svg>
